<?xml version="1.0" encoding="utf-8"?>
<!-- Generator: Adobe Illustrator 24.0.0, SVG Export Plug-In . SVG Version: 6.00 Build 0)  -->
<svg version="1.1" id="Layer_1" xmlns="http://www.w3.org/2000/svg" xmlns:xlink="http://www.w3.org/1999/xlink" x="0px" y="0px"
	 viewBox="0 0 200 200" style="enable-background:new 0 0 200 200;" xml:space="preserve">
<style type="text/css">
	.st0{fill:#DF0012;}
	.st1{fill:#D40029;}
	.st2{font-family:'BrushScriptMT';}
	.st3{font-size:17.518px;}
	.st4{font-family:'GoboldBold-Italic';}
	.st5{font-size:25.7616px;}
</style>
<line class="st0" x1="127" y1="105" x2="159" y2="105"/>
<g>
	<path d="M71.7,106c-7.1,0.5-14.2,0.6-21.4,0.6c-7.1,0-14.2-0.1-21.4-0.6c7.1-0.5,14.2-0.6,21.4-0.6C57.5,105.4,64.6,105.5,71.7,106
		z"/>
</g>
<g>
	<path d="M182,105.5c-7.7,0.5-15.3,0.7-23,0.7c-7.7,0-15.3-0.1-23-0.7c7.7-0.6,15.3-0.7,23-0.7C166.7,104.8,174.3,105,182,105.5z"/>
</g>
<g>
	<g>
		<path d="M88.8,62.2c2.3,0,4.6,0,7,0c3.3,0,4.9,1.4,4.9,4.2c0,0.6-0.1,1.4-0.3,2.2c-0.3,1.5-0.6,2.9-0.9,4.4
			c-0.4,2-1.4,3.4-2.9,4.1c0.9,0.5,1.3,1.3,1.3,2.5c0,0.4-0.1,0.9-0.2,1.5c-0.3,1.5-0.6,2.9-0.9,4.4c-0.9,4.3-3.5,6.4-7.7,6.6
			c-2.2,0.1-4.5,0.2-6.7,0.3C84.5,82.2,86.7,72.2,88.8,62.2z M90.1,79.5c-0.6,2.6-1.1,5.2-1.7,7.8c0.5,0,1,0,1.5-0.1
			c1,0,1.6-0.6,1.8-1.7c0.3-1.5,0.6-2.9,0.9-4.4c0-0.2,0.1-0.4,0.1-0.5c0-0.5-0.2-0.9-0.7-1c-0.2-0.1-0.5-0.1-1-0.1
			C90.8,79.5,90.5,79.5,90.1,79.5z M92.8,67c-0.6,2.6-1.1,5.2-1.7,7.8c0.3,0,0.6,0,1,0c0.5,0,0.9,0,1.1-0.1c0.7-0.3,1.1-0.8,1.3-1.6
			c0.3-1.5,0.6-2.9,0.9-4.4c0.1-0.2,0.1-0.4,0.1-0.6c0-0.7-0.4-1.1-1.2-1.1C93.8,67,93.3,67,92.8,67z"/>
		<path d="M104.6,65.8c1.7,0,3.3,0,5,0c-1.9,8.7-3.8,17.3-5.6,26c-1.7,0-3.4,0-5,0C100.9,83.1,102.7,74.4,104.6,65.8z"/>
		<path d="M121.8,87c-0.8,3.8-3.4,5.5-7.7,5.4c-3.7-0.1-5.5-1.4-5.5-4.1c0-0.5,0.1-1,0.2-1.6c1.1-5.2,2.3-10.4,3.4-15.6
			c0.8-3.7,3.4-5.6,7.7-5.6c3.7,0,5.5,1.4,5.5,4.1c0,0.5-0.1,1.1-0.2,1.7C124.1,76.5,123,81.8,121.8,87z M120.2,71.1
			c0-0.2,0.1-0.3,0.1-0.5c0-0.7-0.4-1-1.2-1c0,0,0,0,0,0c-1,0-1.6,0.5-1.8,1.5c-1.1,5.2-2.3,10.4-3.4,15.6c0,0.2-0.1,0.3-0.1,0.5
			c0,0.7,0.4,1,1.2,1c1,0,1.6-0.4,1.8-1.4C117.9,81.6,119.1,76.4,120.2,71.1z"/>
	</g>
</g>
<text transform="matrix(1 0 0 1 78.2104 108.2842)" class="st1 st2 st3">Premium</text>
<text transform="matrix(1 0 0 1 38 138.3467)" class="st4 st5">INGREDIENTS</text>
</svg>
