<?xml version="1.0" encoding="utf-8"?>
<!-- Generator: Adobe Illustrator 24.0.0, SVG Export Plug-In . SVG Version: 6.00 Build 0)  -->
<svg version="1.1" id="Layer_1" xmlns="http://www.w3.org/2000/svg" xmlns:xlink="http://www.w3.org/1999/xlink" x="0px" y="0px"
	 viewBox="0 0 200 200" style="enable-background:new 0 0 200 200;" xml:space="preserve">
<style type="text/css">
	.st0{fill:#DF0012;}
	.st1{fill:#D40029;}
	.st2{font-family:'BrushScriptMT';}
	.st3{font-size:17.518px;}
	.st4{font-family:'GoboldBold-Italic';}
	.st5{font-size:32.6304px;}
</style>
<line class="st0" x1="127" y1="105" x2="159" y2="105"/>
<g>
	<path d="M71.7,106c-7.1,0.5-14.2,0.6-21.4,0.6c-7.1,0-14.2-0.1-21.4-0.6c7.1-0.5,14.2-0.6,21.4-0.6C57.5,105.4,64.6,105.5,71.7,106
		z"/>
</g>
<g>
	<path d="M182,105.5c-7.7,0.5-15.3,0.7-23,0.7c-7.7,0-15.3-0.1-23-0.7c7.7-0.6,15.3-0.7,23-0.7C166.7,104.8,174.3,105,182,105.5z"/>
</g>
<g>
	<g>
		<path d="M45.8,66.2c1.7,0,3.3,0,5,0c-0.9,4.1-1.8,8.3-2.7,12.5c1,0,2,0,3-0.1c0.9-4.2,1.8-8.3,2.7-12.4c1.7,0,3.3,0,5,0
			c-2.1,9.7-4.3,19.5-6.4,29.5c-1.7,0.1-3.3,0.2-5,0.3c0.9-4.2,1.8-8.4,2.7-12.6c-1,0-2,0.1-3,0.1c-0.9,4.2-1.8,8.4-2.7,12.6
			c-1.7,0.1-3.3,0.2-5,0.3C41.5,86.2,43.7,76.2,45.8,66.2z"/>
		<path d="M71.3,84.6c-0.3,3.4-0.6,6.9-0.9,10.3c-1.7,0.1-3.4,0.1-5.1,0.2c0.2-2,0.3-4,0.5-6c-1.2,0-2.5,0.1-3.7,0.1
			c-0.7,2-1.4,4.1-2.2,6.1c-1.7,0.1-3.4,0.2-5.1,0.2c1.2-3.6,2.5-7.1,3.7-10.6c2.4-6.3,4.8-12.6,7.2-18.7c2.2,0,4.3,0,6.5,0
			C72.1,72.3,71.7,78.5,71.3,84.6z M66.3,84.5c0.2-2.9,0.5-5.8,0.7-8.7c-1.1,2.9-2.1,5.9-3.2,8.8C64.7,84.5,65.5,84.5,66.3,84.5z"/>
		<path d="M79.5,66.2c1.7,0,3.3,0,5,0c0.1,4.6,0.1,9.3,0.2,13.9c1.1-4.7,2.1-9.3,3.2-13.9c1.6,0,3.1,0,4.7,0
			c-2.1,9.4-4.3,18.8-6.4,28.2c-1.7,0-3.3,0.1-5,0.1c0-4.5-0.1-9.1-0.1-13.6c-1,4.5-2.1,9.1-3.1,13.7c-1.6,0-3.2,0.1-4.9,0.2
			C75.2,85.2,77.3,75.7,79.5,66.2z"/>
		<path d="M96.4,66.2c2.3,0,4.6,0,7,0c3.3,0,4.9,1.3,4.9,4c0,0.6-0.1,1.3-0.3,2c-1.2,5.3-2.4,10.6-3.6,15.9c-0.9,4-3.5,6-7.7,6.1
			c-2.2,0-4.5,0.1-6.7,0.1C92.1,85,94.3,75.6,96.4,66.2z M100.4,70.7c-1.5,6.4-2.9,12.7-4.4,19.1c0.5,0,1,0,1.5,0
			c1,0,1.6-0.5,1.8-1.6c1.2-5.3,2.4-10.6,3.6-15.9c0-0.2,0.1-0.4,0.1-0.6c0-0.7-0.4-1-1.2-1C101.4,70.7,100.9,70.7,100.4,70.7z"/>
		<path d="M118.5,84.8c3-6.2,5.9-12.4,8.9-18.6c1.7,0,3.3,0,5,0c-2.1,9.4-4.3,18.7-6.4,28.1c-1.6,0-3.2,0-4.8-0.1
			c1-4.3,2-8.6,3-12.9c-2,4.3-3.9,8.6-5.9,12.8c-1.2,0-2.4,0-3.5,0c0-4.3-0.1-8.6-0.1-13c-1,4.3-2,8.6-3,12.9c-1.6,0-3.3,0-4.9,0
			c2.1-9.3,4.3-18.7,6.4-28c1.7,0,3.3,0,5,0C118.2,72.4,118.3,78.6,118.5,84.8z"/>
		<path d="M144.8,84.5c-0.3,3.4-0.6,6.8-0.9,10.2c-1.7-0.1-3.4-0.1-5.1-0.1c0.2-2,0.3-3.9,0.5-5.9c-1.2,0-2.5,0-3.7-0.1
			c-0.7,1.9-1.4,3.9-2.2,5.8c-1.7,0-3.4-0.1-5.1-0.1c1.2-3.3,2.5-6.7,3.7-10c2.4-6,4.8-12,7.2-18.1c2.2,0,4.3,0,6.5,0
			C145.5,72.3,145.2,78.4,144.8,84.5z M139.8,84.2c0.2-2.9,0.5-5.7,0.7-8.6c-1,2.9-2.1,5.7-3.1,8.5C138.2,84.1,139,84.1,139.8,84.2z
			"/>
		<path d="M152.9,66.2c2.3,0,4.6,0,7,0c3.3,0,4.9,1.4,4.9,4.2c0,0.6-0.1,1.4-0.3,2.1c-1.2,5.5-2.4,11-3.6,16.5
			c-0.9,4.1-3.5,6.1-7.7,6c-2.2-0.1-4.5-0.2-6.7-0.2C148.7,85.3,150.8,75.8,152.9,66.2z M156.9,70.8c-1.5,6.6-2.9,13.1-4.4,19.6
			c0.5,0,1,0,1.5,0c1,0,1.6-0.5,1.8-1.6c1.2-5.4,2.4-10.9,3.6-16.4c0-0.2,0.1-0.4,0.1-0.6c0-0.7-0.4-1.1-1.2-1.1
			C157.9,70.8,157.4,70.8,156.9,70.8z"/>
		<path d="M169.6,66.2c3.9,0,7.9,0,11.8,0c-0.3,1.6-0.7,3.2-1,4.8c-2.3,0-4.5,0-6.8-0.1c-0.6,2.6-1.1,5.2-1.7,7.7
			c2,0,3.9,0.1,5.9,0.1c-0.3,1.6-0.7,3.2-1,4.8c-1.9-0.1-3.9-0.1-5.9-0.2c-0.6,2.6-1.1,5.1-1.7,7.6c2.3,0.1,4.5,0.2,6.8,0.3
			c-0.3,1.6-0.7,3.1-1,4.7c-3.9-0.2-7.9-0.4-11.8-0.6C165.3,85.8,167.5,76.1,169.6,66.2z"/>
	</g>
</g>
<text transform="matrix(1 0 0 1 75.2104 108.2842)" class="st1 st2 st3">Exclusive</text>
<text transform="matrix(1 0 0 1 53 145.1045)" class="st4 st5">RECIPE</text>
</svg>
